#!OML:ASF H:\Terrain\Patient Classification 1\Walking\liu\liu.ASF
:FULLY-SPECIFIED
:DEGREES
307
root 11.017820 18.428188 6.804380 8.111334 8.194880 5.610033
lowerback -8.826258 -5.458750 -7.593432
upperback -0.831531 -6.680465 2.097953
thorax 5.092714 -3.483733 5.605710
lowerneck -20.742809 -5.151201 -14.089460
upperneck 23.945129 -6.439026 13.459930
head 11.984941 -2.559183 6.321436
rclavicle -0.000000 -0.000000
rhumerus -54.682980 6.662832 -91.022247
rradius 38.075397
rwrist -20.894718
rhand -31.107010 -29.904600
rfingers 7.837522
rthumb -1.820984 -62.875233
lclavicle -0.000000 -0.000000
lhumerus -13.197910 -39.116993 99.356178
lradius 40.948929
lwrist 19.423248
lhand -12.430660 -22.880989
lfingers 7.837522
lthumb 16.203989 9.521270
rfemur -48.613293 19.968960 -0.934486
rtibia 27.759491
rfoot -36.129719 -21.861622
rtoes -23.514370
lfemur 15.077260 3.220459 -31.575171
ltibia 0.000000
lfoot -16.130730 0.960086
ltoes 1.318845
308
root 11.002641 18.405088 6.967653 8.259680 8.441136 5.332613
lowerback -8.932142 -5.385732 -7.324174
upperback -0.869599 -6.599417 2.078549
thorax 5.069823 -3.435751 5.441150
lowerneck -20.577148 -5.236649 -13.787180
upperneck 23.768471 -6.642141 13.395690
head 11.906070 -2.637888 6.205122
rclavicle -0.000000 0.000000
rhumerus -54.398632 5.721804 -90.780800
rradius 37.087269
rwrist -19.870399
rhand -29.231070 -30.188730
rfingers 7.837522
rthumb -0.009161 -63.166401
lclavicle -0.000000 0.000000
lhumerus -13.632960 -40.521030 99.716537
lradius 41.656342
lwrist 19.566580
lhand -12.699720 -23.352890
lfingers 7.837522
lthumb 15.944720 9.068147
rfemur -48.764542 19.697479 -0.528724
rtibia 27.527719
rfoot -36.515270 -21.989550
rtoes -22.975698
lfemur 15.548390 3.262270 -31.005150
ltibia 0.000000
lfoot -16.198160 0.716626
ltoes 0.578514
309
root 10.991497 18.383308 7.140452 8.370802 8.722989 5.557013
lowerback -9.042648 -5.421944 -7.617533
upperback -0.792678 -6.609757 2.033042
thorax 5.239872 -3.453098 5.542658
lowerneck -20.187199 -5.231677 -14.094740
upperneck 23.176779 -6.678100 13.946020
head 11.651200 -2.628813 6.440027
rclavicle 0.000000 -0.000000
rhumerus -54.285000 5.893844 -90.907524
rradius 36.652988
rwrist -19.766340
rhand -29.216440 -28.663361
rfingers 7.837522
rthumb 0.004959 -61.641029
lclavicle 0.000000 -0.000000
lhumerus -13.842620 -40.789318 100.157417
lradius 42.167183
lwrist 18.665239
lhand -11.992201 -23.870771
lfingers 7.837522
lthumb 16.626390 8.500129
rfemur -48.513519 18.560081 -0.059051
rtibia 27.211470
rfoot -36.056683 -21.820480
rtoes -23.517012
lfemur 16.106201 3.225651 -30.962801
ltibia 0.000000
lfoot -16.162630 0.337405
ltoes 0.096481
310
root 10.983907 18.356470 7.321567 8.437263 8.809823 5.830209
lowerback -9.026854 -5.452216 -7.891180
upperback -0.829999 -6.625036 1.996753
thorax 5.218433 -3.464098 5.657432
lowerneck -20.982170 -5.476416 -13.968460
upperneck 23.943701 -6.924368 13.508551
head 12.102200 -2.756688 6.241554
rclavicle 0.000000 -0.000000
rhumerus -54.227692 5.674482 -90.614372
rradius 35.928970
rwrist -19.272770
rhand -29.044180 -27.346439
rfingers 7.837522
rthumb 0.171322 -60.324108
lclavicle 0.000000 -0.000000
lhumerus -14.257100 -41.059151 100.764954
lradius 42.580341
lwrist 17.919109
lhand -11.429440 -23.804770
lfingers 7.837522
lthumb 17.168470 8.524560
rfemur -48.105312 16.587780 0.997203
rtibia 26.907871
rfoot -34.749992 -20.760189
rtoes -23.423180
lfemur 16.722309 3.374492 -30.965990
ltibia -0.000000
lfoot -15.906990 -0.159964
ltoes 0.623081
311
root 10.970839 18.335789 7.499657 8.499623 8.853449 5.360553
lowerback -9.120804 -5.352864 -7.361651
upperback -0.844694 -6.539005 2.084599
thorax 5.197687 -3.410583 5.461632
lowerneck -21.147501 -5.623794 -13.929521
upperneck 23.945681 -7.099378 13.406140
head 12.156210 -2.839419 6.166677
rclavicle -0.000000 0.000000
rhumerus -54.101082 5.197049 -90.445740
rradius 35.277550
rwrist -18.732559
rhand -28.954420 -28.522230
rfingers 7.837522
rthumb 0.258043 -61.499790
lclavicle -0.000000 0.000000
lhumerus -14.497010 -42.569561 101.069321
lradius 43.043991
lwrist 18.249220
lhand -11.301729 -23.524158
lfingers 7.837522
lthumb 17.291451 8.795578
rfemur -47.805782 14.478641 3.099558
rtibia 26.773230
rfoot -32.403908 -19.987329
rtoes -23.430330
lfemur 17.266920 3.628680 -30.140221
ltibia -0.000000
lfoot -15.621981 -0.516326
ltoes 0.176711
312
root 10.955318 18.310270 7.691387 8.480659 8.970490 4.995650
lowerback -9.266907 -5.334241 -7.054344
upperback -0.854392 -6.537476 2.177142
thorax 5.247473 -3.405556 5.377108
lowerneck -21.135069 -5.603675 -13.748240
upperneck 23.910370 -7.092833 13.282390
head 12.128160 -2.835426 6.087367
rclavicle 0.000000 -0.000000
rhumerus -54.393459 5.711244 -90.881668
rradius 35.258080
rwrist -18.993370
rhand -30.187519 -27.859259
rfingers 7.837522
rthumb -0.932950 -60.835171
lclavicle 0.000000 -0.000000
lhumerus -15.022699 -43.309753 101.461136
lradius 43.546471
lwrist 17.914711
lhand -10.689019 -23.832050
lfingers 7.837522
lthumb 17.881489 8.440322
rfemur -47.447620 12.667820 4.939759
rtibia 26.809750
rfoot -30.574060 -19.031321
rtoes -21.499279
lfemur 17.939240 3.814778 -29.452610
ltibia -0.000000
lfoot -15.590740 -0.486286
ltoes -2.941741
313
root 10.941821 18.271992 7.890883 8.466150 9.098782 5.187501
lowerback -9.340486 -5.418292 -7.334459
upperback -0.894902 -6.615719 2.118545
thorax 5.279461 -3.448753 5.455472
lowerneck -21.034969 -5.493114 -13.643080
upperneck 23.958551 -7.026514 13.436610
head 12.118590 -2.781988 6.141476
rclavicle -0.000000 0.000000
rhumerus -54.773731 6.062518 -91.200562
rradius 35.184158
rwrist -19.351311
rhand -31.245609 -24.342999
rfingers 7.837522
rthumb -1.954909 -57.312641
lclavicle -0.000000 0.000000
lhumerus -15.921840 -43.140903 101.994415
lradius 44.093941
lwrist 16.746840
lhand -10.038721 -24.511850
lfingers 7.837522
lthumb 18.507502 7.708338
rfemur -47.137310 10.919281 6.035304
rtibia 27.036570
rfoot -29.744110 -17.183540
rtoes -19.250441
lfemur 18.646759 3.933127 -29.364719
ltibia 0.000000
lfoot -15.423650 -0.571463
ltoes -6.543306
314
root 10.929149 18.233601 8.089092 8.496422 9.229594 5.563756
lowerback -9.411359 -5.418237 -7.696051
upperback -0.921260 -6.570069 1.987128
thorax 5.307742 -3.431472 5.521351
lowerneck -20.690779 -5.543659 -13.870230
upperneck 23.771330 -7.110103 13.654850
head 12.012329 -2.825086 6.244535
rclavicle -0.000000 -0.000000
rhumerus -54.970959 5.737963 -91.069328
rradius 34.891891
rwrist -19.080160
rhand -31.123070 -24.444201
rfingers 7.837522
rthumb -1.836549 -57.414833
lclavicle -0.000000 -0.000000
lhumerus -16.810751 -43.384987 102.675537
lradius 44.560890
lwrist 15.752660
lhand -9.576336 -25.024891
lfingers 7.837522
lthumb 18.952671 7.156952
rfemur -46.934250 8.799043 7.130266
rtibia 27.583380
rfoot -28.686901 -15.092660
rtoes -21.587391
lfemur 19.349110 4.017519 -29.446230
ltibia 0.000000
lfoot -15.154920 -0.973057
ltoes -9.274529
